<?xml version="1.0"?>
<svg xmlns="http://www.w3.org/2000/svg" xmlns:lc="https://librecad.org" xmlns:xlink="http://www.w3.org/1999/xlink" width="655mm" height="200mm" viewBox="0 0 655 200">
    <g lc:layername="0" lc:is_locked="false" lc:is_construction="false" fill="none" stroke="black" stroke-width="1">
        <path d="M650,110 L655,105 L655,5 L650,0 L5,0 L0,5 L0,105 L5,110 L10,110 L90,190 L90,195 L95,200 L560,200 L565,195 L565,190 L645,110 L650,110 Z "/>
        <circle cx="312.5" cy="25.12043178" r="2.15"/>
        <circle cx="483.52133732" cy="37.83601739" r="2.15"/>
        <circle cx="422.67816866" cy="180" r="2.15"/>
        <circle cx="515.52133732" cy="150.01899789" r="1.35"/>
        <circle cx="276.645" cy="73.06899789" r="1.65"/>
        <circle cx="377.995" cy="149.16899789" r="1.65"/>
        <circle cx="272.665" cy="168.16899789" r="2.15"/>
        <circle cx="534.02133732" cy="68.51899789" r="2.15"/>
        <circle cx="397.335" cy="153.16899789" r="2.15"/>
        <circle cx="466.52133732" cy="150.01899789" r="1.35"/>
        <circle cx="463.02133732" cy="53.51899789" r="2.15"/>
        <circle cx="257.665" cy="68.86899789" r="2.15"/>
        <circle cx="397.335" cy="68.86899789" r="2.15"/>
        <circle cx="519.02133732" cy="168.51899789" r="2.15"/>
        <circle cx="276.645" cy="149.16899789" r="1.65"/>
        <circle cx="466.52133732" cy="92.01899789" r="1.35"/>
        <circle cx="422.67816866" cy="118.51899789" r="2.15"/>
        <circle cx="560.747618" cy="111.01899789" r="2.15"/>
        <circle cx="342.5" cy="25.12043178" r="2.15"/>
        <circle cx="297.5" cy="25.12043178" r="2.15"/>
        <circle cx="498.52133732" cy="37.83601739" r="2.15"/>
        <circle cx="422.67816866" cy="165" r="2.15"/>
        <circle cx="178.35774223" cy="57.14982856" r="1.65"/>
        <circle cx="534.02133732" cy="153.51899789" r="2.15"/>
        <circle cx="257.665" cy="153.16899789" r="2.15"/>
        <circle cx="448.02133732" cy="153.51899789" r="2.15"/>
        <circle cx="382.335" cy="53.86899789" r="2.15"/>
        <circle cx="448.02133732" cy="68.51899789" r="2.15"/>
        <circle cx="382.335" cy="168.16899789" r="2.15"/>
        <circle cx="519.02133732" cy="53.51899789" r="2.15"/>
        <circle cx="272.665" cy="53.86899789" r="2.15"/>
        <circle cx="463.02133732" cy="168.51899789" r="2.15"/>
        <circle cx="377.995" cy="73.06899789" r="1.65"/>
        <circle cx="178.35774223" cy="122.14982856" r="1.65"/>
        <circle cx="515.52133732" cy="92.01899789" r="1.35"/>
        <circle cx="422.67816866" cy="103.51899789" r="2.15"/>
        <circle cx="545.747618" cy="111.01899789" r="2.15"/>
        <circle cx="357.5" cy="25.12043178" r="2.15"/>
        <circle cx="585" cy="40" r="15"/>
        <circle cx="15" cy="47.5" r="3.25"/>
        <circle cx="15" cy="62.5" r="3.25"/>
        <circle cx="320" cy="185" r="3.25"/>
        <circle cx="335" cy="185" r="3.25"/>
        <circle cx="640" cy="62.5" r="3.25"/>
        <circle cx="640" cy="47.5" r="3.25"/>
        <circle cx="70" cy="40" r="15"/>
        <circle cx="585" cy="130" r="15"/>
        <circle cx="70" cy="130" r="15"/>
    </g>
</svg>
