<?xml version="1.0"?>
<svg xmlns="http://www.w3.org/2000/svg" xmlns:lc="https://librecad.org" xmlns:xlink="http://www.w3.org/1999/xlink" width="785mm" height="283mm" viewBox="0 0 785 283">
    <g lc:layername="0" lc:is_locked="false" lc:is_construction="false" fill="none" stroke="black" stroke-width="1">
        <path d="M5,115 L0,120 L0,203 L5,208 L35,208 L110,283 L675,283 L750,208 L780,208 L785,203 L785,120 L780,115 L750,115 L670,35 L670,5 L665,0 L120,0 L115,5 L115,35 L35,115 L5,115 Z "/>
        <circle cx="15" cy="198.5" r="4.5"/>
        <circle cx="15" cy="169" r="3.25"/>
        <circle cx="15" cy="154" r="3.25"/>
        <circle cx="15" cy="124.5" r="4.5"/>
        <circle cx="385" cy="15" r="3.25"/>
        <circle cx="355.5" cy="15" r="4.5"/>
        <circle cx="400" cy="15" r="3.25"/>
        <circle cx="429.5" cy="15" r="4.5"/>
        <circle cx="770" cy="198.5" r="4.5"/>
        <circle cx="770" cy="169" r="3.25"/>
        <circle cx="770" cy="154" r="3.25"/>
        <circle cx="770" cy="124.5" r="4.5"/>
        <circle cx="72.5" cy="161.5" r="2.5"/>
        <circle cx="232.5" cy="161.5" r="2.5"/>
        <circle cx="712.5" cy="161.5" r="2.5"/>
        <circle cx="185" cy="221.5" r="2.75"/>
        <circle cx="185" cy="101.5" r="2.75"/>
        <circle cx="600" cy="221.5" r="2.75"/>
        <circle cx="600" cy="101.5" r="2.75"/>
        <circle cx="392.5" cy="161.5" r="2.5"/>
        <circle cx="472.5" cy="161.5" r="2.5"/>
        <circle cx="552.5" cy="161.5" r="2.5"/>
        <circle cx="632.5" cy="161.5" r="2.5"/>
        <circle cx="312.5" cy="161.5" r="2.5"/>
        <circle cx="152.5" cy="161.5" r="2.5"/>
    </g>
</svg>
