<?xml version="1.0"?>
<svg xmlns="http://www.w3.org/2000/svg" xmlns:lc="https://librecad.org" xmlns:xlink="http://www.w3.org/1999/xlink" width="698mm" height="597mm" viewBox="0 0 698 597">
    <g lc:layername="0" lc:is_locked="false" lc:is_construction="false" fill="none" stroke="black" stroke-width="1">
        <path d="M683,482 L698,467 L698,15 L683,0 L15,0 L0,15 L0,467 L15,482 L35,482 L115,562 L115,582 L130,597 L568,597 L583,582 L583,562 L663,482 L683,482 Z "/>
        <circle cx="349" cy="403.5" r="2.5"/>
        <circle cx="349" cy="563.5" r="2.5"/>
        <circle cx="349" cy="298.5" r="2.5"/>
        <circle cx="349" cy="33.5" r="2.5"/>
        <circle cx="669" cy="298.5" r="2.5"/>
        <circle cx="29" cy="298.5" r="2.5"/>
        <circle cx="269" cy="298.5" r="2.5"/>
        <circle cx="429" cy="298.5" r="2.5"/>
        <circle cx="349" cy="273.5" r="2.5"/>
        <circle cx="349" cy="483.5" r="2.5"/>
        <circle cx="349" cy="323.5" r="2.5"/>
        <circle cx="349" cy="113.5" r="2.5"/>
        <circle cx="589" cy="298.5" r="2.5"/>
        <circle cx="109" cy="298.5" r="2.5"/>
        <circle cx="189" cy="298.5" r="2.5"/>
        <circle cx="509" cy="298.5" r="2.5"/>
        <circle cx="349" cy="193.5" r="2.5"/>
        <circle cx="683" cy="43" r="4.5"/>
        <circle cx="683" cy="87.5" r="3.25"/>
        <circle cx="15" cy="117" r="4.5"/>
        <circle cx="508" cy="358.5" r="2.75"/>
        <circle cx="190" cy="358.5" r="2.75"/>
        <circle cx="15" cy="72.5" r="3.25"/>
        <circle cx="683" cy="370" r="4.5"/>
        <circle cx="683" cy="414.5" r="3.25"/>
        <circle cx="545" cy="582" r="4.5"/>
        <circle cx="500.5" cy="582" r="3.25"/>
        <circle cx="386" cy="582" r="4.5"/>
        <circle cx="227" cy="582" r="4.5"/>
        <circle cx="341.5" cy="582" r="3.25"/>
        <circle cx="15" cy="399.5" r="3.25"/>
        <circle cx="15" cy="370" r="4.5"/>
        <circle cx="15" cy="444" r="4.5"/>
        <circle cx="15" cy="414.5" r="3.25"/>
        <circle cx="182.5" cy="582" r="3.25"/>
        <circle cx="153" cy="582" r="4.5"/>
        <circle cx="312" cy="582" r="4.5"/>
        <circle cx="197.5" cy="582" r="3.25"/>
        <circle cx="356.5" cy="582" r="3.25"/>
        <circle cx="471" cy="582" r="4.5"/>
        <circle cx="515.5" cy="582" r="3.25"/>
        <circle cx="683" cy="444" r="4.5"/>
        <circle cx="683" cy="399.5" r="3.25"/>
        <circle cx="15" cy="43" r="4.5"/>
        <circle cx="190" cy="238.5" r="2.75"/>
        <circle cx="508" cy="238.5" r="2.75"/>
        <circle cx="15" cy="87.5" r="3.25"/>
        <circle cx="683" cy="117" r="4.5"/>
        <circle cx="683" cy="72.5" r="3.25"/>
    </g>
</svg>
